<svg xmlns="http://www.w3.org/2000/svg" viewBox="0 0 590.36 623.4"><defs><style>.cls-1{fill:#fff3e0;}.cls-13,.cls-2{fill:#fff;}.cls-3{fill:#ffe0b2;}.cls-4{fill:#ffb74d;}.cls-11,.cls-5{fill:none;stroke:#fff;stroke-linecap:round;stroke-miterlimit:10;}.cls-5{stroke-width:3px;}.cls-6{fill:#1b1b1b;}.cls-7{fill:#121f33;}.cls-8{fill:#ff8b00;}.cls-9{fill:#556ec1;}.cls-10{fill:#ff5353;}.cls-12{fill:#4527a0;}.cls-13{opacity:0.2;}</style></defs><title>Asset 2</title><g id="Layer_2" data-name="Layer 2"><g id="calendar"><path class="cls-1" d="M136,80.66S202.66,34.05,262,57c87.37,33.7,41.19,217.18,167.25,217.18,135.38,0,168.5,29.95,159.76,119.82,0,0-41.19,239.64-280.83,215.92S23.65,397.69,23.65,397.69-27.53,227.94,136,80.66Z"/><rect class="cls-1" x="359.69" y="95.4" width="216.67" height="24.66" rx="12" ry="12"/><rect class="cls-1" x="208.69" y="50.4" width="216.67" height="24.66" rx="12" ry="12"/><rect class="cls-1" x="367.69" y="184.4" width="152.08" height="24.66" rx="12" ry="12"/><rect class="cls-1" x="349.75" y="132.83" width="129.48" height="24.66" rx="12" ry="12"/><rect class="cls-2" x="181.88" y="201.01" width="110.93" height="25.12" rx="12" ry="12"/><path class="cls-3" d="M154.41,361.81s-27.35,0-26.38,34.19,28.34,34.19,22.47,48.85S130,456.57,127.06,471.22s-4.89,31.26,29.31,44.94,85,5.86,84-32.24-26.38-29.3-22.47-47.87,19.54-21.49,19.54-40.05S216.93,370.6,216,353s4.88-8.8,13.67-27.36c3.79-8-1-45.91-31.26-46.89s-41,25.4-40.05,42S178.83,347.16,154.41,361.81Z"/><path class="cls-2" d="M189.58,310.85l-12.7,225.83h5.86l11.72-225.83S192.51,302.42,189.58,310.85Z"/><path class="cls-2" d="M189.41,330.37s-18.86-13.47-1,3.12"/><path class="cls-2" d="M192.88,342.8s27.63-12.85-3.47,6"/><path class="cls-2" d="M185.84,380.27s-37-26.28,0,9.38"/><path class="cls-2" d="M189.41,400.59s40.22-18.31.17,8.57"/><path class="cls-2" d="M181.28,464.81s-32.89-25.17-.57,10.65"/><path class="cls-2" d="M185.53,490.5s40.62-24.31-.62,12.4"/><path class="cls-3" d="M124.13,533.74H234.52s6.84,2.94,3.91,10.75-21.5,58.61-21.5,58.61-1,8.8-9.77,8.8H156.37a26,26,0,0,1-8.8-11.73c-2.93-7.81-22-55.19-22-55.19S118.27,536.68,124.13,533.74Z"/><path class="cls-4" d="M64.82,100,80.57,86.48H54.26v-11H96.78V85.73l-15.56,13a17.91,17.91,0,0,1,17.42,18.35c0,10.37-8.53,19.92-23.07,19.92-14,0-22.51-9.08-23.25-19.18l12.32-2.41c.28,6.11,4.63,10.56,10.93,10.56s10.19-4.08,10.19-9.08c0-5.65-4.08-8.89-9.82-8.89a15.09,15.09,0,0,0-5.47.92Z"/><path class="cls-4" d="M117.81,135.58V95.37H103.36V86.75c8.8-.09,14.91-5,16.12-11.3h11v60.13Z"/><path class="cls-4" d="M55.78,186.78V154H67.26c8.33,0,15.6,5.69,15.6,16.48s-7.36,16.34-15.7,16.34Zm11.24-4c6.07,0,11.16-4.07,11.16-12.31S73.18,158,67.12,158H60.31v24.76Z"/><path class="cls-4" d="M86.11,186.78V154h20v4.21H90.64v10.09h14v4.26h-14v10h15.42v4.21Z"/><path class="cls-4" d="M110.93,186.78v-4.54l19.59-24.07H111.4V154H136v4.39l-19.68,24.17h19.91v4.26Z"/><rect class="cls-4" x="165.26" y="75.7" width="24.13" height="24.13" rx="2.01" ry="2.01"/><rect class="cls-4" x="165.26" y="104.66" width="24.13" height="24.13" rx="2.01" ry="2.01"/><rect class="cls-4" x="165.26" y="133.61" width="24.13" height="24.13" rx="2.01" ry="2.01"/><rect class="cls-4" x="165.26" y="162.57" width="24.13" height="24.13" rx="2.01" ry="2.01"/><rect class="cls-4" x="195.42" y="75.7" width="24.13" height="24.13" rx="2.01" ry="2.01"/><rect class="cls-4" x="195.42" y="104.66" width="24.13" height="24.13" rx="2.01" ry="2.01"/><rect class="cls-4" x="195.42" y="133.61" width="24.13" height="24.13" rx="2.01" ry="2.01"/><rect class="cls-4" x="225.58" y="75.7" width="24.13" height="24.13" rx="2.01" ry="2.01"/><rect class="cls-4" x="225.58" y="104.66" width="24.13" height="24.13" rx="2.01" ry="2.01"/><rect class="cls-4" x="225.58" y="133.61" width="24.13" height="24.13" rx="2.01" ry="2.01"/><rect class="cls-4" x="255.74" y="75.7" width="24.13" height="24.13" rx="2.01" ry="2.01"/><rect class="cls-4" x="255.74" y="104.66" width="24.13" height="24.13" rx="2.01" ry="2.01"/><rect class="cls-4" x="255.74" y="133.61" width="24.13" height="24.13" rx="2.01" ry="2.01"/><rect class="cls-4" x="195.42" y="162.57" width="24.13" height="24.13" rx="2.01" ry="2.01"/><polyline class="cls-5" points="198.36 88.82 204.04 94.5 216.54 82"/><polyline class="cls-5" points="168.36 88.82 174.04 94.5 186.54 82"/><polyline class="cls-5" points="168.36 174.82 174.04 180.5 186.54 168"/><polyline class="cls-5" points="228.36 145.82 234.04 151.5 246.54 139"/><polyline class="cls-5" points="198.36 117.82 204.04 123.5 216.54 111"/><polyline class="cls-5" points="228.36 116.82 234.04 122.5 246.54 110"/><path class="cls-2" d="M442.23,413.83a1.5,1.5,0,0,0,0-3,1.5,1.5,0,0,0,0,3Z"/><path class="cls-6" d="M377.32,579.23s2.13,10.56.59,16.71-3.07,20,0,23.07,16.92,0,21.53,1.54,23.07,4.61,36.91,1.54,4.62-16.92,0-16.92-16.14-2.31-20.76-3.84c-4.12-1.38-17.68-5.39-19.22-17.69S378.26,573.29,377.32,579.23Z"/><path class="cls-6" d="M289.48,573.88s1.54,9.23,0,12.31,0,7.68-1.53,9.22-7.69,7.69-13.85,9.23S268,616.94,268,618.48s10.77,6.15,24.61,4.62,15.38-7.69,18.45-9.23,1.54-6.15,1.54-10.77-4.61-10.76,1.54-27.68C314.09,575.42,297.17,578.5,289.48,573.88Z"/><path class="cls-7" d="M388.45,247s13.27,35.7,17,45.62,16.5,45.62,12.78,117-1.86,89.25-5.58,99.17-16.1,57.32-16.1,69.22-16.89,7.3-22.47-2.62-13.52-15-17.25-19-16.74-27.77-14.88-37.69-20.46,27.41-20.46,39.31-6.42,28.14-12,28.14-17.17,5.1-24.61-10.77-4.89-21-12.33-32.88-9.85-28.39-6.13-36.33.54-45-5-58.88-7.12-63-1.53-74.93,10.16-55.26,12.52-62.34,10.05-59.1,19.35-73C291.71,237.08,338.22,258.9,388.45,247Z"/><path class="cls-8" d="M328.11,85.18s-55.54,13.49-63.23,36.56-20,50.75-24.61,55.36,0,24.61,1.54,32.3,30.76,46.13,30.76,53.82S288,284.75,288,284.75a144,144,0,0,1,20,10.77c9.23,6.15,13.84-13.84,13.84-15.38s-6.15-4.61-6.15-12.3-4.62-10.77,1.54-16.92c10.17-10.17,43.06,10.77,72.28,1.54a73.15,73.15,0,0,1,3.07-7.69c1.54-3.08,13.84-6.15,10.77-15.38s1.54-41.52,7.69-47.68a37.6,37.6,0,0,1,21.53-1.53c13.35,2.92,21.11,1.26,25.72-3.35a50,50,0,0,1,11.88-9.23c3.08-1.54,8.54-17.34,19.3-28.1s1.69-22.38,1.69-25.45-2-23.07-2-27.69c0-6.11-5.73-18.79-6.21-21.75-.14-.89-2.9-2.77-3.67-3.23-3.36-2-13.11-6.69-21.85.8,0,0-3.07,15.38-9.23,20s-6.44,24.19-4.91,30.34,0,9.23-7.68,3.07-26.15-16.91-36.91-20S380.22,89.44,328.11,85.18Z"/><path class="cls-9" d="M326.87,97.64a1.76,1.76,0,0,1-.89-2.53c3.23-5.4,15.39-22.29,11.82-32.54-4.3-12.34-12.88-39.75,5.72-54.83s43-4.11,47.24,4.11,11.45,37-8.59,58.94a12.19,12.19,0,0,1-12.88,0s-8.59,15.08,1.43,20.56S380.67,119.58,326.87,97.64Z"/><path class="cls-9" d="M462,61.26a1.46,1.46,0,0,0-.18-.57c-.91-1.63-6.19-10.3-18.68-15.85-5.07-2.25-4.61-16.92,0-21.53s27.68-3.08,29.22,0,7.69,6.15,4.61,18.45a40,40,0,0,0,1,21.7,1.62,1.62,0,0,1-.94,2C473.25,67,463.14,70.26,462,61.26Z"/><path class="cls-10" d="M439.52,29.11l-38.15,1.34A1.54,1.54,0,0,0,399.89,32l.12,3.19a1.52,1.52,0,0,0,1.47,1.48l37.25,1.37a1.52,1.52,0,0,0,1.57-1.33l.8-5.89A1.55,1.55,0,0,0,439.52,29.11Z"/><path class="cls-11" d="M365,107.65s14.46,21,8.31,74.83c0,0-4.61,3.08-1.54,9.23s4.62,12.3,1.54,20,6.15,10.77,1.54,20-4.27,22.88-4.27,22.88"/><path class="cls-11" d="M408.67,185.56s6.15-21.53-6.15-56.9"/><path class="cls-11" d="M341,519.29s13.84-15.38,12.31-27.69-1.54-33.83,4.61-43.06,10.77-41.52,9.23-46.14-1.54-55.36,4.61-63,3.08-9.23,4.62-13.84,3.07-6.15,9.22-9.23"/><path class="cls-11" d="M323.32,270.91S320.7,301,297.17,308.82"/><path class="cls-11" d="M318.7,249.38s1.54-9.23-6.15-20-6.15-26.14-9.23-30.76"/><path class="cls-11" d="M315.63,186.33s-11.17,14.95-9.43,20.55"/><path class="cls-10" d="M544.46,25.45l-66.1,2.31a2.77,2.77,0,0,0-2.55,3l.21,6a2.78,2.78,0,0,0,2.56,2.78l64.54,2.76a2.71,2.71,0,0,0,2.73-2.48l1.34-11A2.81,2.81,0,0,0,544.46,25.45Z"/><path class="cls-10" d="M546.07,20.12l-44.31,2.66c-1,.06-1.65,2.31-1.48,5l.61,10.25c.15,2.59,1,4.69,1.95,4.82l41.43,4.88c.92.13,1.63-1.69,1.63-4.2l2.27-17.79C548.17,22.76,547.17,20.06,546.07,20.12Z"/><path class="cls-12" d="M393,17.54s-8.54,7-25.29,2.57c0,0-17.86,7.81-14.51,23.44,0,0-1.12-7.81-7.81-5.58s-4.47,12.28,0,14.51-7,14.86-7,14.86-12-24.9-7.56-41.65S349.24-1.77,367.41.24,392.61,9.4,393,17.54Z"/><rect class="cls-10" x="398.97" y="29.04" width="5.58" height="8.93" rx="2.5" ry="2.5"/><path class="cls-13" d="M390,33.5s2.23,13.4,3.35,14.52-3.35,4.46-5.58,2.23,0-3.35,0-3.35S384.46,32.39,390,33.5Z"/><rect class="cls-2" y="201.01" width="110.93" height="25.12" rx="12" ry="12"/><rect class="cls-2" x="463.81" y="294.52" width="121.87" height="24.66" rx="12" ry="12"/></g></g></svg>